<?xml version="1.0" standalone="no"?>
<!DOCTYPE svg PUBLIC "-//W3C//DTD SVG 20010904//EN"
 "http://www.w3.org/TR/2001/REC-SVG-20010904/DTD/svg10.dtd">
<svg version="1.0" xmlns="http://www.w3.org/2000/svg"
 width="5019.000000pt" height="294.000000pt" viewBox="0 0 5019.000000 294.000000"
 preserveAspectRatio="xMidYMid meet">

<g transform="translate(0.000000,294.000000) scale(0.100000,-0.100000)"
fill="#000000" stroke="none">
<path d="M70 1335 l0 -586 118 3 117 3 3 233 2 232 340 0 340 0 0 -235 0 -236
118 3 117 3 0 580 0 580 -577 3 -578 2 0 -585z m920 230 l0 -115 -340 0 -340
0 0 115 0 115 340 0 340 0 0 -115z"/>
<path d="M1455 1908 c-3 -7 -4 -269 -3 -583 l3 -570 118 -3 117 -3 0 236 0
235 230 0 230 0 0 -120 0 -120 110 0 109 0 3 -112 3 -113 118 -3 118 -3 -3
118 -3 118 -112 3 -113 3 0 114 0 115 115 0 115 0 0 350 0 350 -575 0 c-451 0
-577 -3 -580 -12z m915 -343 l0 -115 -340 0 -340 0 0 115 0 115 340 0 340 0 0
-115z"/>
<path d="M2840 1800 l0 -120 225 0 225 0 2 -462 3 -463 118 -3 117 -3 0 466 0
465 230 0 230 0 0 120 0 120 -575 0 -575 0 0 -120z"/>
<path d="M4220 1335 l0 -585 578 2 577 3 0 115 0 115 -462 3 -463 2 0 115 0
115 230 0 230 0 0 115 0 115 -230 0 -230 0 0 115 0 115 463 2 462 3 0 115 0
115 -577 3 -578 2 0 -585z"/>
<path d="M5600 1335 l0 -586 118 3 117 3 3 463 2 462 110 0 110 0 0 -465 0
-466 118 3 117 3 3 463 2 462 110 0 110 0 2 -462 3 -463 115 0 115 0 0 580 0
580 -577 3 -578 2 0 -585z"/>
<path d="M8370 1335 l0 -585 115 0 115 0 0 235 0 235 230 0 230 0 0 -120 0
-120 115 0 115 0 0 -115 0 -115 115 0 115 0 0 120 0 120 -115 0 -115 0 0 115
0 115 -115 0 -115 0 0 115 0 115 115 0 115 0 0 115 0 115 115 0 115 0 0 120 0
120 -115 0 -115 0 0 -115 0 -115 -115 0 -115 0 0 -120 0 -120 -230 0 -230 0 0
235 0 235 -115 0 -115 0 0 -585z"/>
<path d="M9750 1335 l0 -585 578 2 577 3 0 580 0 580 -577 3 -578 2 0 -585z
m920 0 l0 -345 -345 0 -345 0 0 345 0 345 345 0 345 0 0 -345z"/>
<path d="M11130 1335 l0 -585 580 0 581 0 -3 118 -3 117 -462 3 -463 2 0 345
0 345 463 2 462 3 3 118 3 117 -581 0 -580 0 0 -585z"/>
<path d="M12515 1908 c-3 -7 -4 -269 -3 -583 l3 -570 118 -3 117 -3 0 236 0
235 345 0 345 0 0 -235 0 -235 115 0 115 0 0 585 0 585 -115 0 -115 0 0 -235
0 -235 -345 0 -345 0 0 235 0 235 -115 0 c-83 0 -117 -3 -120 -12z"/>
<path d="M13900 1335 l0 -585 115 0 115 0 0 235 0 235 230 0 230 0 0 -120 0
-120 115 0 115 0 0 -115 0 -115 115 0 115 0 0 120 0 120 -115 0 -115 0 0 115
0 115 -110 0 -110 0 0 115 0 115 110 0 110 0 0 115 0 115 115 0 115 0 0 120 0
120 -115 0 -115 0 0 -115 0 -115 -115 0 -115 0 0 -120 0 -120 -230 0 -230 0 0
235 0 235 -115 0 -115 0 0 -585z"/>
<path d="M15280 1335 l0 -586 118 3 117 3 0 580 0 580 -117 3 -118 3 0 -586z"/>
<path d="M15745 1908 c-3 -7 -4 -269 -3 -583 l3 -570 118 -3 117 -3 0 466 0
465 340 0 340 0 2 -462 3 -463 118 -3 117 -3 0 586 0 585 -575 0 c-451 0 -577
-3 -580 -12z"/>
<path d="M18510 1800 l0 -120 230 0 230 0 0 -345 0 -345 -230 0 -230 0 0 -120
0 -120 578 2 577 3 0 115 0 115 -232 3 -233 2 0 345 0 345 233 2 232 3 0 115
0 115 -577 3 -578 2 0 -120z"/>
<path d="M19890 1335 l0 -585 120 0 120 0 0 350 0 350 110 0 110 0 0 -115 0
-115 115 0 115 0 0 -120 0 -120 115 0 114 0 3 -112 3 -113 118 -3 117 -3 0
586 0 586 -117 -3 -118 -3 -3 -347 -2 -348 -110 0 -110 0 0 115 0 115 -115 0
-115 0 0 120 0 120 -115 0 -115 0 0 115 0 115 -120 0 -120 0 0 -585z"/>
<path d="M21280 1335 l0 -585 460 0 460 0 0 115 0 115 115 0 115 0 0 355 0
355 -115 0 -115 0 0 115 0 115 -460 0 -460 0 0 -585z m920 0 l0 -345 -345 0
-345 0 0 345 0 345 345 0 345 0 0 -345z"/>
<path d="M22660 1335 l0 -585 578 2 577 3 0 580 0 580 -117 3 -118 3 0 -466 0
-465 -345 0 -345 0 0 465 0 465 -115 0 -115 0 0 -585z"/>
<path d="M24040 1570 l0 -350 460 0 460 0 0 -115 0 -115 -457 -2 -458 -3 -3
-117 -3 -118 581 0 580 0 0 350 0 350 -465 0 -465 0 0 115 0 115 463 2 462 3
3 118 3 117 -581 0 -580 0 0 -350z"/>
<path d="M25424 1907 c-2 -7 -3 -60 -2 -118 l3 -104 233 -3 232 -2 0 -465 0
-465 115 0 115 0 0 465 0 465 230 0 230 0 0 120 0 120 -575 0 c-467 0 -577 -2
-581 -13z"/>
<path d="M26810 1335 l0 -585 115 0 115 0 0 235 0 235 230 0 230 0 0 -120 0
-120 115 0 115 0 0 -115 0 -116 118 3 117 3 0 115 0 115 -117 3 -118 3 0 114
0 115 120 0 120 0 -2 233 -3 232 -117 3 -118 3 0 114 0 115 -460 0 -460 0 0
-585z m920 230 l0 -115 -345 0 -345 0 0 115 0 115 345 0 345 0 0 -115z"/>
<path d="M28192 1803 l3 -118 228 -3 227 -2 0 -345 0 -345 -227 -2 -228 -3 -3
-117 -3 -118 581 0 581 0 -3 118 -3 117 -227 3 -228 2 0 345 0 345 228 2 227
3 3 118 3 117 -581 0 -581 0 3 -117z"/>
<path d="M29575 1908 c-3 -7 -4 -269 -3 -583 l3 -570 578 -3 577 -2 0 120 0
120 -460 0 -460 0 0 115 0 115 230 0 230 0 0 115 0 115 -230 0 -230 0 0 115 0
115 460 0 460 0 0 120 0 120 -575 0 c-451 0 -577 -3 -580 -12z"/>
<path d="M30960 1570 l0 -350 460 0 460 0 0 -115 0 -115 -460 0 -460 0 0 -120
0 -120 575 0 575 0 0 350 0 350 -460 0 -460 0 0 115 0 115 460 0 460 0 0 120
0 120 -575 0 -575 0 0 -350z"/>
<path d="M33957 1913 c-4 -3 -7 -55 -7 -114 l0 -108 -112 -3 -113 -3 0 -350 0
-350 112 -3 112 -3 3 -112 3 -112 118 -3 118 -3 -3 118 -3 118 -112 3 -113 3
0 344 0 344 113 3 112 3 3 118 3 117 -114 0 c-63 0 -117 -3 -120 -7z"/>
<path d="M34415 1908 c-3 -7 -4 -269 -3 -583 l3 -570 115 0 115 0 3 463 2 462
110 0 110 0 2 -462 3 -463 118 -3 117 -3 0 466 0 465 110 0 110 0 2 -462 3
-463 118 -3 117 -3 0 586 0 585 -575 0 c-451 0 -577 -3 -580 -12z"/>
<path d="M35794 1907 c-2 -7 -3 -60 -2 -118 l3 -104 227 -3 228 -2 2 -463 3
-462 118 -3 117 -3 0 466 0 465 230 0 230 0 0 120 0 120 -575 0 c-467 0 -577
-2 -581 -13z"/>
<path d="M37180 1800 l0 -120 115 0 115 0 0 -345 0 -345 -115 0 -115 0 0 -120
0 -120 115 0 115 0 0 115 0 115 115 0 115 0 0 355 0 355 -115 0 -115 0 0 115
0 115 -115 0 -115 0 0 -120z"/>
<path d="M39254 1907 c-2 -7 -3 -60 -2 -118 l3 -104 233 -3 232 -2 0 -465 0
-465 115 0 115 0 0 465 0 465 230 0 230 0 0 120 0 120 -575 0 c-467 0 -577 -2
-581 -13z"/>
<path d="M40640 1335 l0 -585 575 0 575 0 0 120 0 120 -460 0 -460 0 0 115 0
115 230 0 230 0 0 115 0 115 -230 0 -230 0 0 115 0 115 460 0 460 0 0 120 0
120 -575 0 -575 0 0 -585z"/>
<path d="M42020 1335 l0 -586 118 3 117 3 3 233 2 232 225 0 225 0 0 -120 0
-120 115 0 115 0 0 -115 0 -116 118 3 117 3 0 115 0 115 -112 3 -113 3 0 114
0 115 115 0 115 0 -2 233 -3 232 -112 3 -112 3 -3 112 -3 112 -462 3 -463 2 0
-585z m920 230 l0 -115 -340 0 -340 0 0 115 0 115 340 0 340 0 0 -115z"/>
<path d="M43400 1335 l0 -585 120 0 120 0 0 350 0 350 110 0 110 0 0 -115 0
-115 120 0 120 0 0 115 0 115 110 0 110 0 2 -347 3 -348 118 -3 117 -3 0 586
0 586 -117 -3 -118 -3 -3 -112 -3 -113 -109 0 -110 0 0 -120 0 -120 -115 0
-115 0 0 120 0 120 -115 0 -115 0 0 115 0 115 -120 0 -120 0 0 -585z"/>
<path d="M44790 1800 l0 -120 225 0 225 0 0 -345 0 -345 -225 0 -225 0 0 -120
0 -120 575 0 575 0 0 120 0 120 -230 0 -230 0 0 345 0 345 230 0 230 0 0 120
0 120 -575 0 -575 0 0 -120z"/>
<path d="M46170 1335 l0 -585 115 0 115 0 0 350 0 350 115 0 115 0 0 -115 0
-115 115 0 115 0 0 -120 0 -120 115 0 115 0 0 -115 0 -116 118 3 117 3 0 580
0 580 -117 3 -118 3 0 -351 0 -350 -115 0 -115 0 0 115 0 115 -110 0 -109 0
-3 118 -3 117 -117 3 -118 3 0 114 0 115 -115 0 -115 0 0 -585z"/>
<path d="M47550 1335 l0 -585 120 0 120 0 0 235 0 235 345 0 345 0 0 -235 0
-235 115 0 115 0 0 585 0 585 -580 0 -580 0 0 -585z m930 230 l0 -115 -345 0
-345 0 0 115 0 115 345 0 345 0 0 -115z"/>
<path d="M48935 1908 c-3 -7 -4 -269 -3 -583 l3 -570 578 -3 577 -2 0 120 0
120 -460 0 -460 0 0 465 0 465 -115 0 c-83 0 -117 -3 -120 -12z"/>
</g>
</svg>
